<svg width="87" height="87" fill="none" xmlns="http://www.w3.org/2000/svg"><path d="M40.278 87c22.245 0 40.277-18.033 40.277-40.278 0-22.245-18.032-40.278-40.277-40.278S0 24.477 0 46.722C0 68.967 18.033 87 40.278 87Z" fill="#E7EFFF"/><path d="M6.444 4.833a2.417 2.417 0 1 0 0-4.833 2.417 2.417 0 0 0 0 4.833Z" fill="#00C99F"/><path d="M84.583 10.472a2.417 2.417 0 1 0 0-4.833 2.417 2.417 0 0 0 0 4.833Z" fill="#FFA100"/><path d="M80.555 87a2.417 2.417 0 1 0 0-4.833 2.417 2.417 0 0 0 0 4.833Z" fill="#00C99F"/><path d="M2.417 84.583a2.417 2.417 0 1 0 0-4.833 2.417 2.417 0 0 0 0 4.833Z" fill="#FF4D69"/><path d="M61.222 81.361c8.009 0 14.5-6.492 14.5-14.5s-6.491-14.5-14.5-14.5c-8.008 0-14.5 6.492-14.5 14.5s6.492 14.5 14.5 14.5Z" fill="#FFA100"/><path d="M58.614 74a.58.58 0 0 1-.38-.14.474.474 0 0 1-.147-.36v-2.02h-1.56a.53.53 0 0 1-.38-.14A.451.451 0 0 1 56 71v-.7c0-.133.05-.247.148-.34a.53.53 0 0 1 .38-.14h1.56v-1.04h-1.56a.53.53 0 0 1-.38-.14.474.474 0 0 1-.148-.36v-1.3c0-.133.05-.247.148-.34a.53.53 0 0 1 .38-.14h1.56v-6c0-.147.048-.267.147-.36a.58.58 0 0 1 .38-.14h5.777c1.138 0 2.122.167 2.951.5.844.333 1.497.84 1.961 1.52.464.667.696 1.5.696 2.5 0 .973-.232 1.773-.696 2.4-.464.627-1.117 1.093-1.96 1.4-.83.307-1.814.46-2.952.46h-2.847v1.04h3.163c.14 0 .26.047.358.14a.451.451 0 0 1 .148.34v.7c0 .133-.05.247-.148.34a.502.502 0 0 1-.358.14h-3.163v2.02c0 .147-.049.267-.147.36a.53.53 0 0 1-.38.14h-2.404Zm2.889-7.5h2.783c.703 0 1.251-.167 1.645-.5.407-.333.611-.833.611-1.5 0-.587-.183-1.067-.548-1.44-.351-.373-.92-.56-1.708-.56h-2.783v4Z" fill="#fff"/><path d="M52.361 22.555v54.778a4.834 4.834 0 0 1-4.833 4.834H21.146A40.447 40.447 0 0 1 7.25 69.769V22.555a4.833 4.833 0 0 1 4.833-4.833h35.445a4.834 4.834 0 0 1 4.833 4.833Z" fill="#4E6AFF"/><path d="M47.528 22.556H12.083a.805.805 0 0 0-.805.805v14.5c0 .445.36.806.805.806h35.445c.444 0 .805-.36.805-.806v-14.5a.805.805 0 0 0-.805-.805Z" fill="#fff"/><path d="M16.917 41.889h-3.223c-.89 0-1.61.721-1.61 1.611v3.222c0 .89.72 1.611 1.61 1.611h3.223c.89 0 1.61-.721 1.61-1.61V43.5c0-.89-.72-1.611-1.61-1.611ZM26.583 41.889h-3.222c-.89 0-1.611.721-1.611 1.611v3.222c0 .89.721 1.611 1.611 1.611h3.222c.89 0 1.611-.721 1.611-1.61V43.5c0-.89-.72-1.611-1.61-1.611ZM36.25 41.889h-3.222c-.89 0-1.611.721-1.611 1.611v3.222c0 .89.721 1.611 1.61 1.611h3.223c.89 0 1.611-.721 1.611-1.61V43.5c0-.89-.721-1.611-1.61-1.611ZM45.917 41.889h-3.223c-.89 0-1.61.721-1.61 1.611v3.222c0 .89.72 1.611 1.61 1.611h3.223c.89 0 1.61-.721 1.61-1.61V43.5c0-.89-.72-1.611-1.61-1.611ZM16.917 51.555h-3.223c-.89 0-1.61.722-1.61 1.611v3.223c0 .89.72 1.61 1.61 1.61h3.223c.89 0 1.61-.72 1.61-1.61v-3.223c0-.89-.72-1.61-1.61-1.61ZM26.583 51.555h-3.222c-.89 0-1.611.722-1.611 1.611v3.223c0 .89.721 1.61 1.611 1.61h3.222c.89 0 1.611-.72 1.611-1.61v-3.223c0-.89-.72-1.61-1.61-1.61ZM36.25 51.555h-3.222c-.89 0-1.611.722-1.611 1.611v3.223c0 .89.721 1.61 1.61 1.61h3.223c.89 0 1.611-.72 1.611-1.61v-3.223c0-.89-.721-1.61-1.61-1.61ZM45.917 51.555h-3.223c-.89 0-1.61.722-1.61 1.611v3.223c0 .89.72 1.61 1.61 1.61h3.223c.89 0 1.61-.72 1.61-1.61v-3.223c0-.89-.72-1.61-1.61-1.61ZM16.917 61.222h-3.223c-.89 0-1.61.721-1.61 1.611v3.222c0 .89.72 1.612 1.61 1.612h3.223c.89 0 1.61-.722 1.61-1.612v-3.222c0-.89-.72-1.61-1.61-1.61ZM26.583 61.222h-3.222c-.89 0-1.611.721-1.611 1.611v3.222c0 .89.721 1.612 1.611 1.612h3.222c.89 0 1.611-.722 1.611-1.612v-3.222c0-.89-.72-1.61-1.61-1.61ZM36.25 61.222h-3.222c-.89 0-1.611.721-1.611 1.611v3.222c0 .89.721 1.612 1.61 1.612h3.223c.89 0 1.611-.722 1.611-1.612v-3.222c0-.89-.721-1.61-1.61-1.61Z" fill="#8FA2FF"/><path d="M45.917 61.222h-3.223c-.89 0-1.61.721-1.61 1.611v12.89c0 .889.72 1.61 1.61 1.61h3.223c.89 0 1.61-.721 1.61-1.61v-12.89c0-.89-.72-1.61-1.61-1.61Z" fill="#FF4D69"/><path d="M18.528 72.5v3.222a1.611 1.611 0 0 1-1.611 1.611h-2.804a35.144 35.144 0 0 1-2.03-1.86V72.5a1.611 1.611 0 0 1 1.611-1.611h3.223a1.611 1.611 0 0 1 1.61 1.611ZM26.583 70.889h-3.222c-.89 0-1.611.721-1.611 1.611v3.222c0 .89.721 1.611 1.611 1.611h3.222c.89 0 1.611-.721 1.611-1.61V72.5c0-.89-.72-1.611-1.61-1.611ZM36.25 70.889h-3.222c-.89 0-1.611.721-1.611 1.611v3.222c0 .89.721 1.611 1.61 1.611h3.223c.89 0 1.611-.721 1.611-1.61V72.5c0-.89-.721-1.611-1.61-1.611Z" fill="#8FA2FF"/><path d="M59.611 37.861c9.343 0 16.917-7.574 16.917-16.916 0-9.343-7.574-16.917-16.917-16.917-9.343 0-16.917 7.574-16.917 16.917 0 9.342 7.574 16.916 16.917 16.916Z" fill="#00C99F"/><path d="M52.36 29.806a1.61 1.61 0 0 1-1.135-2.747l14.5-14.5a1.61 1.61 0 0 1 2.272 2.272l-14.5 14.5c-.301.302-.71.473-1.136.475ZM53.167 20.14a4.833 4.833 0 1 1 0-9.668 4.833 4.833 0 0 1 0 9.667Zm0-6.445a1.61 1.61 0 1 0 0 3.221 1.61 1.61 0 0 0 0-3.221ZM66.055 31.417a4.834 4.834 0 1 1 0-9.668 4.834 4.834 0 0 1 0 9.668Zm0-6.445a1.612 1.612 0 1 0 0 3.223 1.612 1.612 0 0 0 0-3.223Z" fill="#fff"/><path d="M17.722 36.25H14.5a.806.806 0 0 1 0-1.611h3.222a.805.805 0 1 1 0 1.61ZM24.167 36.25h-3.223a.805.805 0 1 1 0-1.611h3.223a.805.805 0 1 1 0 1.61ZM30.611 36.25h-3.222a.806.806 0 0 1 0-1.611h3.222a.805.805 0 1 1 0 1.61Z" fill="#A5BCED"/></svg>